<svg width="16" height="12" viewBox="0 0 16 12" version="1.1" xmlns="http://www.w3.org/2000/svg" xmlns:xlink="http://www.w3.org/1999/xlink">
<title>book</title>
<desc>Created using Figma</desc>
<g id="Canvas" transform="translate(-1284 2638)">
<g id="book">
<g id="Shape">
<use xlink:href="#path0_fill" transform="translate(1284.37 -2637.9)" fill="url(#paint0_linear)"/>
</g>
<g id="Shape">
<use xlink:href="#path1_fill" transform="translate(1292.32 -2636.38)" fill="url(#paint1_linear)"/>
</g>
<g id="Shape">
<use xlink:href="#path2_fill" transform="translate(1286.23 -2636.38)" fill="url(#paint2_linear)"/>
</g>
<g id="Shape">
<use xlink:href="#path3_fill" transform="translate(1292.32 -2635.04)" fill="url(#paint3_linear)"/>
</g>
<g id="Shape">
<use xlink:href="#path4_fill" transform="translate(1286.23 -2635.04)" fill="url(#paint4_linear)"/>
</g>
<g id="Shape">
<use xlink:href="#path5_fill" transform="translate(1292.32 -2633.71)" fill="url(#paint5_linear)"/>
</g>
<g id="Shape">
<use xlink:href="#path6_fill" transform="translate(1286.23 -2633.71)" fill="url(#paint6_linear)"/>
</g>
<g id="Shape">
<use xlink:href="#path7_fill" transform="translate(1292.32 -2632.37)" fill="url(#paint7_linear)"/>
</g>
<g id="Shape">
<use xlink:href="#path8_fill" transform="translate(1286.23 -2632.37)" fill="url(#paint8_linear)"/>
</g>
<g id="Shape">
<use xlink:href="#path9_fill" transform="translate(1292.32 -2631.03)" fill="url(#paint9_linear)"/>
</g>
<g id="Shape">
<use xlink:href="#path10_fill" transform="translate(1286.23 -2631.03)" fill="url(#paint10_linear)"/>
</g>
</g>
</g>
<defs>
<linearGradient id="paint0_linear" x1="0" y1="0" x2="1" y2="0" gradientUnits="userSpaceOnUse" gradientTransform="matrix(14.4405 11.298 -14.4405 11.298 0 0)">
<stop offset="0" stop-color="#DE2C3D"/>
<stop offset="1" stop-color="#C75789"/>
</linearGradient>
<linearGradient id="paint1_linear" x1="0" y1="0" x2="1" y2="0" gradientUnits="userSpaceOnUse" gradientTransform="matrix(4.85387 0.976044 -4.85387 0.976044 0 0)">
<stop offset="0" stop-color="#DE2C3D"/>
<stop offset="1" stop-color="#C75789"/>
</linearGradient>
<linearGradient id="paint2_linear" x1="0" y1="0" x2="1" y2="0" gradientUnits="userSpaceOnUse" gradientTransform="matrix(4.85393 0.976044 -4.85393 0.976044 0 0)">
<stop offset="0" stop-color="#DE2C3D"/>
<stop offset="1" stop-color="#C75789"/>
</linearGradient>
<linearGradient id="paint3_linear" x1="0" y1="0" x2="1" y2="0" gradientUnits="userSpaceOnUse" gradientTransform="matrix(4.85387 0.976044 -4.85387 0.976044 0 0)">
<stop offset="0" stop-color="#DE2C3D"/>
<stop offset="1" stop-color="#C75789"/>
</linearGradient>
<linearGradient id="paint4_linear" x1="0" y1="0" x2="1" y2="0" gradientUnits="userSpaceOnUse" gradientTransform="matrix(4.85393 0.976044 -4.85393 0.976044 0 0)">
<stop offset="0" stop-color="#DE2C3D"/>
<stop offset="1" stop-color="#C75789"/>
</linearGradient>
<linearGradient id="paint5_linear" x1="0" y1="0" x2="1" y2="0" gradientUnits="userSpaceOnUse" gradientTransform="matrix(4.85387 0.976044 -4.85387 0.976044 0 0)">
<stop offset="0" stop-color="#DE2C3D"/>
<stop offset="1" stop-color="#C75789"/>
</linearGradient>
<linearGradient id="paint6_linear" x1="0" y1="0" x2="1" y2="0" gradientUnits="userSpaceOnUse" gradientTransform="matrix(4.85393 0.976044 -4.85393 0.976044 0 0)">
<stop offset="0" stop-color="#DE2C3D"/>
<stop offset="1" stop-color="#C75789"/>
</linearGradient>
<linearGradient id="paint7_linear" x1="0" y1="0" x2="1" y2="0" gradientUnits="userSpaceOnUse" gradientTransform="matrix(4.85387 0.976044 -4.85387 0.976044 0 0)">
<stop offset="0" stop-color="#DE2C3D"/>
<stop offset="1" stop-color="#C75789"/>
</linearGradient>
<linearGradient id="paint8_linear" x1="0" y1="0" x2="1" y2="0" gradientUnits="userSpaceOnUse" gradientTransform="matrix(4.85393 0.976044 -4.85393 0.976044 0 0)">
<stop offset="0" stop-color="#DE2C3D"/>
<stop offset="1" stop-color="#C75789"/>
</linearGradient>
<linearGradient id="paint9_linear" x1="0" y1="0" x2="1" y2="0" gradientUnits="userSpaceOnUse" gradientTransform="matrix(4.85387 0.976044 -4.85387 0.976044 0 0)">
<stop offset="0" stop-color="#DE2C3D"/>
<stop offset="1" stop-color="#C75789"/>
</linearGradient>
<linearGradient id="paint10_linear" x1="0" y1="0" x2="1" y2="0" gradientUnits="userSpaceOnUse" gradientTransform="matrix(4.85393 0.976044 -4.85393 0.976044 0 0)">
<stop offset="0" stop-color="#DE2C3D"/>
<stop offset="1" stop-color="#C75789"/>
</linearGradient>
<path id="path0_fill" fill-rule="evenodd" d="M 13.8713 1.45703L 14.5227 1.45703C 14.6731 1.45703 14.7949 1.5874 14.7949 1.74829L 14.7949 11.2839C 14.7949 11.4448 14.6731 11.5752 14.5227 11.5752L 0.272217 11.5752C 0.176147 11.5752 0.0917969 11.522 0.043335 11.4417C 0.0366211 11.4307 0.0306396 11.4189 0.0253906 11.407C 0.0090332 11.3696 0 11.3279 0 11.2839L 0 1.74829C 0 1.5874 0.121826 1.45703 0.272217 1.45703L 0.923462 1.45703L 0.923462 0.797119C 0.923462 0.753174 0.932617 0.711426 0.948975 0.673828C 0.958008 0.65332 0.969116 0.634033 0.982178 0.616455C 1.02551 0.557617 1.08984 0.516846 1.16394 0.507568L 4.93811 0.0332031C 5.78455 -0.0734863 6.63171 0.078125 7.39746 0.471436C 8.16321 0.078125 9.01038 -0.0732422 9.85681 0.0332031L 13.631 0.507568C 13.7679 0.524902 13.8713 0.64917 13.8713 0.797119L 13.8713 1.45703ZM 13.3269 1.0564L 9.79321 0.612061C 9.06335 0.520264 8.33264 0.647217 7.66956 0.97876L 7.66956 9.59692C 8.36145 9.2998 9.10938 9.19238 9.85669 9.28638L 13.3269 9.72266L 13.3269 1.0564ZM 5.00159 0.612061C 5.73145 0.520264 6.46228 0.647217 7.12524 0.97876L 7.12524 9.59692C 6.59607 9.36963 6.03418 9.25317 5.46472 9.25317C 5.28967 9.25317 5.11389 9.26416 4.93811 9.28638L 1.4679 9.72266L 1.4679 1.0564L 5.00159 0.612061ZM 0.544312 2.03979L 0.544312 10.9927L 14.2505 10.9927L 14.2505 2.03979L 13.8712 2.03979L 13.8712 10.0503C 13.8712 10.1335 13.838 10.2126 13.7799 10.2678C 13.7299 10.3157 13.6654 10.3416 13.5991 10.3416C 13.5885 10.3416 13.5779 10.3408 13.5673 10.3396L 9.79321 9.86499C 9.00867 9.76636 8.22363 9.91992 7.52258 10.3088C 7.44409 10.3525 7.35071 10.3525 7.27222 10.3088C 6.57104 9.91992 5.78577 9.76636 5.00159 9.86499L 1.22742 10.3396C 1.15027 10.3494 1.07288 10.3232 1.01477 10.2678C 0.956665 10.2126 0.923462 10.1335 0.923462 10.0503L 0.923462 2.03979L 0.544312 2.03979Z"/>
<path id="path1_fill" d="M 0.343569 0.73054C 0.83138 0.588652 1.33342 0.54875 1.83534 0.611808L 4.66905 0.968005C 4.67987 0.969365 4.69057 0.970026 4.70117 0.970026C 4.83729 0.970026 4.95487 0.860889 4.97113 0.71259C 4.98862 0.552752 4.88182 0.407988 4.73256 0.389223L 1.89881 0.0330251C 1.32725 -0.0388127 0.756005 0.00668329 0.200877 0.168192C 0.0557891 0.210386 -0.029819 0.370496 0.00959193 0.525789C 0.0490029 0.681081 0.198663 0.772695 0.343569 0.73054Z"/>
<path id="path2_fill" d="M 0.27188 0.969414C 0.282477 0.969414 0.293219 0.968754 0.303997 0.967394L 3.13745 0.611235C 3.63872 0.548722 4.1466 0.589555 4.6293 0.730317C 4.77428 0.77255 4.92394 0.681052 4.96342 0.525721C 5.00294 0.370428 4.91737 0.210279 4.77232 0.168008C 4.22274 0.00774245 3.64508 -0.0388026 3.07416 0.0324136L 0.240453 0.388611C 0.0911923 0.407377 -0.0156456 0.552141 0.00188252 0.711979C 0.0181768 0.860278 0.135756 0.969414 0.27188 0.969414Z"/>
<path id="path3_fill" d="M 0.343569 0.730523C 0.83138 0.588634 1.33334 0.548733 1.83534 0.61179L 4.66905 0.967988C 4.67987 0.969348 4.69057 0.970008 4.70117 0.970008C 4.83729 0.970008 4.95487 0.860872 4.97113 0.712573C 4.98862 0.552735 4.88182 0.407971 4.73256 0.389206L 1.89881 0.0330079C 1.32732 -0.0387911 0.756042 0.00666611 0.200877 0.168175C 0.0557891 0.210369 -0.029819 0.370479 0.00959193 0.525771C 0.0490029 0.681025 0.198663 0.772716 0.343569 0.730523Z"/>
<path id="path4_fill" d="M 0.27188 0.969414C 0.282477 0.969414 0.293219 0.968754 0.303997 0.967394L 3.13745 0.611235C 3.6384 0.54876 4.14657 0.589555 4.6293 0.730317C 4.77428 0.77255 4.92394 0.681052 4.96342 0.525721C 5.00294 0.370428 4.91737 0.210279 4.77232 0.168008C 4.22267 0.00774245 3.64482 -0.0388026 3.07416 0.0324136L 0.240453 0.388611C 0.0911923 0.407377 -0.0156456 0.552141 0.00188252 0.711979C 0.0181768 0.860278 0.135756 0.969414 0.27188 0.969414Z"/>
<path id="path5_fill" d="M 0.343569 0.730515C 0.83138 0.588627 1.33334 0.548725 1.83534 0.611783L 4.66905 0.96798C 4.67987 0.96934 4.69057 0.970001 4.70117 0.970001C 4.83729 0.970001 4.95487 0.860865 4.97113 0.712566C 4.98862 0.552727 4.88182 0.407964 4.73256 0.389198L 1.89881 0.0330003C 1.32732 -0.0387987 0.756042 0.00669736 0.200877 0.168167C 0.0557891 0.210361 -0.029819 0.370471 0.00959193 0.525764C 0.0490029 0.681056 0.198663 0.772709 0.343569 0.730515Z"/>
<path id="path6_fill" d="M 0.27188 0.969427C 0.282477 0.969427 0.293219 0.968767 0.303997 0.967407L 3.13745 0.611248C 3.63836 0.548773 4.14657 0.589568 4.6293 0.73033C 4.77428 0.772602 4.92394 0.681066 4.96342 0.525734C 5.00294 0.370442 4.91737 0.210292 4.77232 0.168021C 4.2227 0.00775556 3.64486 -0.0387895 3.07416 0.0323879L 0.240453 0.388586C 0.0911923 0.407351 -0.0156456 0.552115 0.00188252 0.711953C 0.0181768 0.860291 0.135756 0.969427 0.27188 0.969427Z"/>
<path id="path7_fill" d="M 0.343569 0.730506C 0.831307 0.588617 1.33327 0.548677 1.83534 0.611773L 4.66905 0.967971C 4.67987 0.969331 4.69057 0.969991 4.70117 0.969991C 4.83729 0.969991 4.95487 0.860855 4.97113 0.712556C 4.98862 0.552718 4.88182 0.407954 4.73256 0.389188L 1.89881 0.0329908C 1.32732 -0.0387694 0.756078 0.00664893 0.200877 0.168158C 0.0557891 0.210351 -0.029819 0.370462 0.00959193 0.525754C 0.0490029 0.681047 0.198663 0.772738 0.343569 0.730506Z"/>
<path id="path8_fill" d="M 0.27188 0.969414C 0.282477 0.969414 0.293219 0.968754 0.303997 0.967394L 3.13745 0.611235C 3.63825 0.548722 4.14649 0.589516 4.6293 0.730317C 4.77428 0.77255 4.92394 0.681052 4.96342 0.525721C 5.00294 0.370428 4.91737 0.210279 4.77232 0.168008C 4.2227 0.00774245 3.64471 -0.0388026 3.07416 0.0324136L 0.240453 0.388611C 0.0911923 0.407377 -0.0156456 0.552141 0.00188252 0.711979C 0.0181768 0.860278 0.135756 0.969414 0.27188 0.969414Z"/>
<path id="path9_fill" d="M 4.73256 0.389198L 1.89881 0.0330003C 1.32721 -0.0387987 0.755969 0.00669736 0.200877 0.168167C 0.0557891 0.210361 -0.029819 0.370471 0.00959193 0.525764C 0.0490029 0.681095 0.198663 0.772787 0.343569 0.730554C 0.83138 0.588704 1.33342 0.548803 1.83534 0.611822L 4.66905 0.968019C 4.67987 0.969379 4.69057 0.97004 4.70117 0.97004C 4.83729 0.97004 4.95487 0.860904 4.97113 0.712604C 4.98862 0.552766 4.88182 0.407964 4.73256 0.389198Z"/>
<path id="path10_fill" d="M 0.27188 0.969414C 0.282477 0.969414 0.293219 0.968754 0.303997 0.967394L 3.13745 0.611235C 3.6384 0.54876 4.14657 0.589555 4.6293 0.730317C 4.77428 0.772588 4.92394 0.681052 4.96342 0.525721C 5.00294 0.370428 4.91737 0.210279 4.77232 0.168008C 4.22267 0.00774245 3.64482 -0.0388026 3.07416 0.0324136L 0.240453 0.388611C 0.0911923 0.407377 -0.0156456 0.552141 0.00188252 0.711979C 0.0181768 0.860278 0.135756 0.969414 0.27188 0.969414Z"/>
</defs>
</svg>
