<svg width="251" height="79" viewBox="0 0 251 79" version="1.1" xmlns="http://www.w3.org/2000/svg" xmlns:xlink="http://www.w3.org/1999/xlink">
<title>Rectangle 5</title>
<desc>Created using Figma</desc>
<g id="Canvas" transform="translate(1653 954)">
<rect x="-1653" y="-954" width="251" height="79" fill="#FFFFFF"/>
<clipPath id="clip-0" clip-rule="evenodd">
<path d="M -1653 -954L -213 -954L -213 422L -1653 422L -1653 -954Z" fill="#FFFFFF"/>
</clipPath>
<g id="Desktop/Personalise - Step 1" clip-path="url(#clip-0)">
<g id="Navigation Premium">
<g id="Navigation">
<g id="Background">
<use xlink:href="#path0_fill" transform="translate(-1653 -955)" fill="#171717"/>
</g>
<g id="Rectangle 5">
<use xlink:href="#path1_fill" transform="translate(-1653 -955)" fill="url(#paint1_linear)"/>
</g>
<g id="Main Nav">
<g id="Logo" filter="url(#filter0_d)">
<g id="Fill 1">
<use xlink:href="#path2_fill" transform="translate(-1621 -925.43)" fill="#FFFFFE"/>
</g>
<g id="Fill 2">
<use xlink:href="#path3_fill" transform="translate(-1600.3 -924.847)" fill="#FFFFFE"/>
</g>
<g id="Fill 3">
<use xlink:href="#path4_fill" transform="translate(-1588.35 -927.937)" fill="#FFFFFE"/>
</g>
<g id="Fill 4">
<use xlink:href="#path5_fill" transform="translate(-1578.26 -927.792)" fill="#FFFFFE"/>
</g>
<g id="Fill 5">
<use xlink:href="#path6_fill" transform="translate(-1568.41 -927.937)" fill="#FFFFFE"/>
</g>
<g id="Group 9">
<mask id="mask0_outline" mask-type="alpha">
<g id="Clip 7">
<use xlink:href="#path7_fill" transform="translate(-1559.75 -924.847)" fill="#FFFFFF"/>
</g>
</mask>
<g id="Fill 6" mask="url(#mask0_outline)">
<use xlink:href="#path8_fill" transform="translate(-1559.75 -924.847)" fill="#FFFFFE"/>
</g>
<g id="Fill 8" mask="url(#mask0_outline)">
<use xlink:href="#path9_fill" transform="translate(-1548.23 -920.795)" fill="#FFFFFE"/>
</g>
</g>
<g id="Fill 10">
<use xlink:href="#path10_fill" transform="translate(-1530.73 -925.43)" fill="#FFFFFE"/>
</g>
<g id="Fill 11">
<use xlink:href="#path11_fill" transform="translate(-1504.26 -921.086)" fill="#FFFFFE"/>
</g>
<g id="Fill 12">
<use xlink:href="#path12_fill" transform="translate(-1488.55 -921.086)" fill="#FFFFFE"/>
</g>
<g id="Fill 13">
<use xlink:href="#path13_fill" transform="translate(-1473.68 -927.792)" fill="#FFFFFE"/>
</g>
</g>
</g>
</g>
</g>
</g>
</g>
<defs>
<filter id="filter0_d" filterUnits="userSpaceOnUse" x="-1625" y="-930" width="175" height="38" color-interpolation-filters="sRGB">
<feFlood flood-opacity="0" result="BackgroundImageFix"/>
<feColorMatrix in="SourceAlpha" type="matrix" values="0 0 0 0 0 0 0 0 0 0 0 0 0 0 0 0 0 0 255 0"/>
<feOffset dx="0" dy="2"/>
<feGaussianBlur stdDeviation="2"/>
<feColorMatrix type="matrix" values="0 0 0 0 0 0 0 0 0 0 0 0 0 0 0 0 0 0 0.195029 0"/>
<feBlend mode="normal" in2="BackgroundImageFix" result="effect1_dropShadow"/>
<feBlend mode="normal" in="SourceGraphic" in2="effect1_dropShadow" result="shape"/>
</filter>
<linearGradient id="paint1_linear" x1="0" y1="0" x2="1" y2="0" gradientUnits="userSpaceOnUse" gradientTransform="matrix(251 0 0 80 0 40)">
<stop offset="0" stop-color="#FFA500"/>
<stop offset="1" stop-color="#F76B1C"/>
</linearGradient>
<path id="path0_fill" fill-rule="evenodd" d="M 0 0L 1440 0L 1440 80L 0 80L 0 0Z"/>
<path id="path1_fill" fill-rule="evenodd" d="M 0 0L 251 0L 227 80L 0 80L 0 0Z"/>
<path id="path2_fill" fill-rule="evenodd" d="M 8.39669 12.7408C 8.39669 16.0353 9.53349 18.076 12.7117 18.076C 15.1314 18.076 17.2304 16.7059 17.2304 12.6242L 17.2304 3.2653C 17.2304 1.77826 16.9097 1.48669 14.5483 1.31209L 14.5483 0L 21.3704 0L 21.3704 1.31209C 19.4755 1.51585 19.3589 1.77826 19.3589 3.2653L 19.3589 13.2074C 19.3589 18.3679 15.6854 20.7581 11.0497 20.7581C 5.24802 20.7581 2.01152 18.2214 2.01152 13.2074L 2.01152 3.2653C 2.01152 1.77826 1.89525 1.51585 0 1.31209L 0 0L 10.4082 0L 10.4082 1.31209C 8.51297 1.51585 8.39669 1.77826 8.39669 3.2653L 8.39669 12.7408"/>
<path id="path3_fill" fill-rule="evenodd" d="M 7.66775 4.05256L 10.9039 4.05256L 10.9039 5.71419L 7.66775 5.71419L 7.66775 15.3647C 7.66775 16.6181 8.16343 17.1721 9.15444 17.1721C 9.85422 17.1721 10.5248 16.9097 11.1955 16.4431L 11.662 17.1721C 10.4957 19.1256 8.77539 20.175 6.3265 20.175C 3.52772 20.175 1.57416 18.7758 1.57416 15.2772L 1.57416 5.71419L 0 5.71419L 0 4.63536C 2.47805 3.76098 4.75234 2.04068 6.38482 0L 7.66775 0L 7.66775 4.05256"/>
<path id="path4_fill" fill-rule="evenodd" d="M 1.54541 2.88625C 1.54541 1.3409 2.68256 0 4.63577 0C 6.56017 0 7.72612 1.3409 7.72612 2.88625C 7.72612 4.43126 6.56017 5.77251 4.63577 5.77251C 2.68256 5.77251 1.54541 4.43126 1.54541 2.88625ZM 7.55112 20.6998C 7.55112 21.5745 8.018 21.662 9.09648 21.7495L 9.09648 22.9737L 0 22.9737L 0 21.7495C 1.07883 21.662 1.54535 21.5745 1.54535 20.6998L 1.54535 10.4957L 0 9.50431L 0 8.60042L 6.5018 6.85132L 7.55112 6.85132L 7.55112 20.6998L 7.55112 20.6998Z"/>
<path id="path5_fill" fill-rule="evenodd" d="M 7.55112 20.5544C 7.55112 21.4291 8.01764 21.5166 9.09648 21.604L 9.09648 22.8283L 0 22.8283L 0 21.604C 1.07848 21.5166 1.54535 21.4291 1.54535 20.5544L 1.54535 3.09071L 0 2.30345L 0 1.31209L 6.53061 0L 7.55112 0L 7.55112 20.5544"/>
<path id="path6_fill" fill-rule="evenodd" d="M 1.54541 2.88625C 1.54541 1.3409 2.68221 0 4.63577 0C 6.55982 0 7.72612 1.3409 7.72612 2.88625C 7.72612 4.43126 6.55982 5.77251 4.63577 5.77251C 2.68221 5.77251 1.54541 4.43126 1.54541 2.88625ZM 7.55112 20.6998C 7.55112 21.5745 8.01764 21.662 9.09648 21.7495L 9.09648 22.9737L 0 22.9737L 0 21.7495C 1.07883 21.662 1.54535 21.5745 1.54535 20.6998L 1.54535 10.4957L 0 9.50431L 0 8.60042L 6.50145 6.85132L 7.55112 6.85132L 7.55112 20.6998L 7.55112 20.6998Z"/>
<path id="path7_fill" fill-rule="evenodd" d="M 29.185 26.335L 0 26.335L 2.99534e-14 0L 29.185 0L 29.185 26.335Z"/>
<path id="path8_fill" fill-rule="evenodd" d="M 7.66775 4.05256L 10.9039 4.05256L 10.9039 5.71419L 7.66775 5.71419L 7.66775 15.3647C 7.66775 16.6181 8.16308 17.1721 9.15444 17.1721C 9.85422 17.1721 10.5248 16.9097 11.1955 16.4431L 11.6616 17.1721C 10.4957 19.1256 8.77539 20.175 6.3265 20.175C 3.52772 20.175 1.57416 18.7758 1.57416 15.2772L 1.57416 5.71419L 0 5.71419L 0 4.63536C 2.47805 3.76098 4.75199 2.04068 6.38482 0L 7.66775 0L 7.66775 4.05256"/>
<path id="path9_fill" fill-rule="evenodd" d="M 13.8776 3.11951C 14.0238 2.71131 14.1109 2.5072 14.1109 2.24479C 14.1109 1.63248 13.761 1.42837 12.2156 1.22427L 12.2156 0L 17.6678 0L 17.6678 1.22427C 16.6764 1.545 16.4431 1.74911 16.1807 2.39057L 9.41686 18.2509C 8.28006 20.9043 7.14292 22.3035 5.04357 22.3035C 3.84846 22.3035 2.97373 21.8373 2.53636 21.1375L 2.53636 18.7758C 3.32362 18.9215 3.99424 19.0673 4.92729 19.0673C 6.58892 19.0673 7.37618 18.6008 7.87151 17.5511L 8.30922 16.6181L 1.48669 2.39057C 1.19546 1.74911 0.991008 1.545 0 1.22427L 0 0L 9.97085 0L 9.97085 1.22427C 8.42585 1.42837 8.07561 1.63248 8.07561 2.24479C 8.07561 2.5072 8.16343 2.71131 8.28006 3.0612L 11.1372 9.9417L 13.8776 3.11951"/>
<path id="path10_fill" fill-rule="evenodd" d="M 15.248 9.32939L 11.0788 20.5544L 8.71708 20.5544L 1.69079 2.39057C 1.42837 1.74911 0.816414 1.45753 0 1.31209L 0 0L 10.0587 0L 10.0587 1.31209C 9.06732 1.42837 8.71708 1.80742 8.71708 2.41973C 8.71708 2.88625 8.92118 3.46941 9.15479 4.11087L 12.3031 12.4784L 14.3733 6.85134L 12.8575 2.39057C 12.6242 1.74911 12.2448 1.45753 11.4287 1.31209L 11.4287 0L 21.4871 0L 21.4871 1.31209C 20.0587 1.34125 19.5918 1.74911 19.5918 2.56552C 19.5918 3.0612 19.7671 3.70267 20.0004 4.48992L 22.5076 12.3326L 25.2189 4.37329C 25.423 3.73183 25.5979 3.14867 25.5979 2.68215C 25.5979 1.89489 25.1314 1.39921 23.7322 1.31209L 23.7322 0L 29.6797 0L 29.6797 1.31209C 28.8632 1.45753 28.2221 1.74911 27.9889 2.39057L 21.5162 20.5544L 19.1256 20.5544L 15.248 9.32939"/>
<path id="path11_fill" fill-rule="evenodd" d="M 5.45178 5.83083L 9.56266 5.83083C 9.56266 2.94458 9.09613 1.28259 7.69692 1.28259C 6.23869 1.28259 5.56841 3.09037 5.45178 5.83083ZM 14.6649 6.53061L 14.6649 7.25955L 5.42262 7.25955C 5.42262 10.4669 7.23039 12.5072 9.79556 12.5072C 11.6325 12.5072 13.0321 11.8953 14.14 10.4669L 14.7524 10.8456C 13.9359 14.2275 11.6325 16.414 7.81354 16.414C 3.46941 16.414 0 13.6444 0 8.54213C 0 3.2653 3.76098 0 8.07561 0C 12.4489 0 14.6649 2.71131 14.6649 6.53061L 14.6649 6.53061Z"/>
<path id="path12_fill" fill-rule="evenodd" d="M 5.45215 5.83083L 9.56302 5.83083C 9.56302 2.94458 9.0965 1.28259 7.69693 1.28259C 6.23905 1.28259 5.56878 3.09037 5.45215 5.83083ZM 14.6649 6.53061L 14.6649 7.25955L 5.42297 7.25955C 5.42297 10.4669 7.23039 12.5072 9.79591 12.5072C 11.6325 12.5072 13.0324 11.8953 14.14 10.4669L 14.7524 10.8456C 13.9359 14.2275 11.6325 16.414 7.81354 16.414C 3.46941 16.414 0 13.6444 0 8.54213C 0 3.2653 3.76098 0 8.07561 0C 12.4493 0 14.6649 2.71131 14.6649 6.53061L 14.6649 6.53061Z"/>
<path id="path13_fill" fill-rule="evenodd" d="M 12.1577 10.5835C 12.9741 9.85459 13.1491 9.47554 13.1491 9.0965C 13.1491 8.57166 12.77 8.36755 11.4291 8.22177L 11.4291 6.9975L 18.2221 6.9975L 18.2221 8.22177C 17.2596 8.33875 16.5601 8.48419 15.7729 9.27144L 12.6825 12.2452L 18.7761 21.9831L 18.7761 22.8283L 12.5951 22.8283L 7.72644 14.5778L 12.1577 10.5835ZM 1.54535 3.09071L 0 2.30345L 0 1.31209L 6.53061 0L 7.55147 0L 7.55147 20.5544C 7.55147 21.4291 8.01764 21.5166 9.09648 21.604L 9.09648 22.8283L 0 22.8283L 0 21.604C 1.07883 21.5166 1.54535 21.4291 1.54535 20.5544L 1.54535 3.09071L 1.54535 3.09071Z"/>
</defs>
</svg>
