<svg width="34" height="34" viewBox="0 0 34 34" version="1.1" xmlns="http://www.w3.org/2000/svg" xmlns:xlink="http://www.w3.org/1999/xlink">
<title>Search</title>
<desc>Created using Figma</desc>
<g id="Canvas" transform="translate(279 930)">
<rect x="-279" y="-930" width="34" height="34" fill="#FFFFFF"/>
<clipPath id="clip-0" clip-rule="evenodd">
<path d="M -1653 -954L -213 -954L -213 422L -1653 422L -1653 -954Z" fill="#FFFFFF"/>
</clipPath>
<g id="Desktop/Personalise - Step 1" clip-path="url(#clip-0)">
<g id="Navigation Premium">
<g id="Navigation">
<g id="Background">
<use xlink:href="#path0_fill" transform="translate(-1653 -955)" fill="#171717"/>
</g>
<g id="Main Nav">
<g id="Search">
<g id="Shape" filter="url(#filter0_d)">
<use xlink:href="#path1_fill" transform="translate(-275 -928)" fill="url(#paint1_linear)"/>
</g>
</g>
</g>
</g>
</g>
</g>
</g>
<defs>
<filter id="filter0_d" filterUnits="userSpaceOnUse" x="-279" y="-930" width="34" height="34" color-interpolation-filters="sRGB">
<feFlood flood-opacity="0" result="BackgroundImageFix"/>
<feColorMatrix in="SourceAlpha" type="matrix" values="0 0 0 0 0 0 0 0 0 0 0 0 0 0 0 0 0 0 255 0"/>
<feOffset dx="0" dy="2"/>
<feGaussianBlur stdDeviation="2"/>
<feColorMatrix type="matrix" values="0 0 0 0 0 0 0 0 0 0 0 0 0 0 0 0 0 0 0.503453 0"/>
<feBlend mode="normal" in2="BackgroundImageFix" result="effect1_dropShadow"/>
<feBlend mode="normal" in="SourceGraphic" in2="effect1_dropShadow" result="shape"/>
</filter>
<linearGradient id="paint1_linear" x1="0" y1="0" x2="1" y2="0" gradientUnits="userSpaceOnUse" gradientTransform="matrix(25.9923 0 0 25.9923 0 12.9962)">
<stop offset="0" stop-color="#FFA500"/>
<stop offset="1" stop-color="#F76B1C"/>
</linearGradient>
<path id="path0_fill" fill-rule="evenodd" d="M 0 0L 1440 0L 1440 80L 0 80L 0 0Z"/>
<path id="path1_fill" fill-rule="evenodd" d="M 19.4253 17.8976L 25.6741 24.1464C 26.0984 24.5654 26.0984 25.255 25.6741 25.6741C 25.2497 26.0984 24.5654 26.0984 24.1411 25.6741L 17.8923 19.4306C 16.0038 20.9796 13.5903 21.9078 10.9539 21.9078C 4.90143 21.9078 0 17.0011 0 10.9539C 0 4.90674 4.90143 0 10.9539 0C 17.0011 0 21.9078 4.90674 21.9078 10.9539C 21.9078 13.5903 20.9742 16.0092 19.4253 17.8976ZM 2.17487 10.9539C 2.17487 15.7917 6.11081 19.7277 10.9539 19.7277C 15.7916 19.7277 19.7328 15.7917 19.7328 10.9539C 19.7328 6.11615 15.7916 2.17487 10.9539 2.17487C 6.11081 2.17487 2.17487 6.11615 2.17487 10.9539Z"/>
</defs>
</svg>
